<?xml version="1.0" encoding="UTF-8"?>
<svg width="1111px" height="114px" viewBox="0 0 1111 114" version="1.1" xmlns="http://www.w3.org/2000/svg" xmlns:xlink="http://www.w3.org/1999/xlink">
    <!-- Generator: Sketch 47.1 (45422) - http://www.bohemiancoding.com/sketch -->
    <title>title</title>
    <desc>Created with Sketch.</desc>
    <defs></defs>
    <g id="WombDefender" stroke="none" stroke-width="1" fill="none" fill-rule="evenodd">
        <g id="Desktop-HD" transform="translate(-101.000000, -170.000000)" fill="#D93F3F">
            <g id="title" transform="translate(101.000000, 153.000000)">
                <path d="M25.1954644,28.1560976 L25.1954644,90.4027317 C25.1954644,93.6082111 26.7071771,95.2109268 29.7306479,95.2109268 L38.6714384,95.2109268 C41.6949093,95.2109268 43.206622,93.6082111 43.206622,90.4027317 L43.206622,28.1560976 L54.9980994,28.1560976 L66.7895767,28.1560976 L66.7895767,90.4027317 C66.7895767,93.6082111 68.3012894,95.2109268 71.3247603,95.2109268 L80.2655508,95.2109268 C83.2890216,95.2109268 84.8007343,93.6082111 84.8007343,90.4027317 L84.8007343,28.1560976 L109.290726,28.1560976 L109.290726,101.838439 C109.290726,113.360838 103.589409,119.121951 92.1866048,119.121951 L66.4008467,119.121951 C63.204606,119.121951 60.6778862,118.407227 58.8206112,116.977756 C56.9633363,115.548286 55.6891784,113.967228 54.9980994,112.234537 C54.3070203,113.967228 53.0328624,115.548286 51.1755875,116.977756 C49.3183125,118.407227 46.7915927,119.121951 43.5953521,119.121951 L17.809594,119.121951 C6.40678964,119.121951 0.705473002,113.360838 0.705473002,101.838439 L0.705473002,28.1560976 L25.1954644,28.1560976 Z M259.470091,28.1560976 C262.666331,28.1560976 265.193051,28.8708221 267.050326,30.3002927 C268.907601,31.7297632 270.181759,33.3108206 270.872838,35.0435122 C271.563917,33.3108206 272.838075,31.7297632 274.69535,30.3002927 C276.552625,28.8708221 279.079345,28.1560976 282.275585,28.1560976 L308.061343,28.1560976 C319.464148,28.1560976 325.165464,33.9172107 325.165464,45.4396098 L325.165464,119.121951 L300.675473,119.121951 L300.675473,56.8753171 C300.675473,53.6698376 299.16376,52.067122 296.140289,52.067122 L287.199499,52.067122 C284.176028,52.067122 282.664315,53.6698376 282.664315,56.8753171 L282.664315,119.121951 L270.872838,119.121951 L259.081361,119.121951 L259.081361,56.8753171 C259.081361,53.6698376 257.569648,52.067122 254.546177,52.067122 L245.605387,52.067122 C242.581916,52.067122 241.070203,53.6698376 241.070203,56.8753171 L241.070203,119.121951 L216.580212,119.121951 L216.580212,45.4396098 C216.580212,33.9172107 222.281528,28.1560976 233.684333,28.1560976 L259.470091,28.1560976 Z M386.455231,28.1560976 C402.781974,28.1560976 410.945222,36.2129926 410.945222,52.3270244 L410.945222,57.6550244 C410.945222,61.9867534 410.405325,65.1705264 409.325514,67.206439 C408.245703,69.2423516 406.582819,70.9100423 404.336812,72.209561 C406.841974,73.1625414 408.828796,74.9168653 410.297339,77.4725854 C411.765882,80.0283055 412.500143,83.3853451 412.500143,87.5438049 L412.500143,94.9510244 C412.500143,111.065056 404.336894,119.121951 388.010151,119.121951 L349.396302,119.121951 C344.04044,119.121951 341.362549,116.393003 341.362549,110.935024 L341.362549,36.2130732 C341.362549,30.8417292 344.04044,28.1560976 349.396302,28.1560976 L386.455231,28.1560976 Z M365.85254,94.0413659 C365.85254,95.5141537 366.500417,96.2505366 367.79619,96.2505366 L384.770734,96.2505366 C387.88059,96.2505366 389.435495,94.6045043 389.435495,91.3123902 L389.435495,88.5834146 C389.435495,87.2838959 389.154748,86.1793216 388.593246,85.2696585 C388.031744,84.3599955 386.930354,83.9051707 385.289041,83.9051707 L369.869417,83.9051707 L369.869417,63.372878 L383.604544,63.372878 C385.332242,63.372878 386.476824,62.9180533 387.038326,62.0083902 C387.599828,61.0987272 387.880575,59.9941528 387.880575,58.6946341 L387.880575,55.9656585 C387.880575,52.6735445 386.32567,51.0275122 383.215814,51.0275122 L367.79619,51.0275122 C366.500417,51.0275122 365.85254,51.7638951 365.85254,53.2366829 L365.85254,94.0413659 Z M506.831961,28.1560976 C513.915521,28.1560976 519.983968,29.0440887 525.037484,30.8200976 C530.090999,32.5961064 534.215816,35.1734465 537.412056,38.5521951 C540.608297,41.9309437 542.962249,46.0676828 544.473985,50.9625366 C545.98572,55.8573903 546.741577,61.4235786 546.741577,67.6612683 L546.741577,79.6167805 C546.741577,85.8544702 545.98572,91.4206585 544.473985,96.3155122 C542.962249,101.210366 540.608297,105.347105 537.412056,108.725854 C534.215816,112.104602 530.090999,114.681942 525.037484,116.457951 C519.983968,118.23396 513.915521,119.121951 506.831961,119.121951 L481.305356,119.121951 C475.949494,119.121951 473.271603,116.43632 473.271603,111.064976 L473.271603,36.2130732 C473.271603,30.8417292 475.949494,28.1560976 481.305356,28.1560976 L506.831961,28.1560976 Z M497.761594,93.0017561 C497.761594,94.4745439 498.409471,95.2109268 499.705244,95.2109268 L506.443231,95.2109268 C512.058248,95.2109268 516.096681,93.9980609 518.55865,91.5722927 C521.020619,89.1465245 522.251585,84.7715438 522.251585,78.4472195 L522.251585,68.700878 C522.251585,62.3765537 521.020619,58.0015731 518.55865,55.5758049 C516.096681,53.1500367 512.058248,51.9371707 506.443231,51.9371707 L499.705244,51.9371707 C498.409471,51.9371707 497.761594,52.6735536 497.761594,54.1463415 L497.761594,93.0017561 Z M620.989011,28.1560976 L620.989011,51.9371707 L588.206112,51.9371707 C586.910339,51.9371707 586.262462,52.6735536 586.262462,54.1463415 L586.262462,93.0017561 C586.262462,94.4745439 586.910339,95.2109268 588.206112,95.2109268 L620.989011,95.2109268 L620.989011,119.121951 L569.806225,119.121951 C564.450362,119.121951 561.772471,116.393003 561.772471,110.935024 L561.772471,36.2130732 C561.772471,30.8417292 564.450362,28.1560976 569.806225,28.1560976 L620.989011,28.1560976 Z M620.729857,62.3332683 L620.729857,83.9051707 L590.279339,83.9051707 L590.279339,62.3332683 L620.729857,62.3332683 Z M696.273058,28.1560976 L696.273058,51.9371707 L663.49016,51.9371707 C662.194387,51.9371707 661.54651,52.6735536 661.54651,54.1463415 L661.54651,119.121951 L637.056518,119.121951 L637.056518,36.2130732 C637.056518,30.8417292 639.73441,28.1560976 645.090272,28.1560976 L696.273058,28.1560976 Z M696.013905,62.3332683 L696.013905,83.9051707 L665.563387,83.9051707 L665.563387,62.3332683 L696.013905,62.3332683 Z M769.224726,28.1560976 L769.224726,51.9371707 L736.441827,51.9371707 C735.146054,51.9371707 734.498177,52.6735536 734.498177,54.1463415 L734.498177,93.0017561 C734.498177,94.4745439 735.146054,95.2109268 736.441827,95.2109268 L769.224726,95.2109268 L769.224726,119.121951 L718.04194,119.121951 C712.686077,119.121951 710.008186,116.393003 710.008186,110.935024 L710.008186,36.2130732 C710.008186,30.8417292 712.686077,28.1560976 718.04194,28.1560976 L769.224726,28.1560976 Z M768.965572,62.3332683 L768.965572,83.9051707 L738.515054,83.9051707 L738.515054,62.3332683 L768.965572,62.3332683 Z M804.987888,28.1560976 C809.134362,28.1560976 812.200979,30.0620297 814.187832,33.8739512 L833.624333,71.1699512 L834.142639,71.1699512 L834.142639,28.1560976 L857.984747,28.1560976 L857.984747,113.534049 C857.984747,115.093471 857.552829,116.414629 856.688981,117.497561 C855.825132,118.580493 854.658953,119.121951 853.19041,119.121951 L841.658086,119.121951 C837.684382,119.121951 834.617765,117.216019 832.458143,113.404098 L809.523071,73.8989268 L809.004765,73.8989268 L809.004765,119.121951 L785.162657,119.121951 L785.162657,33.744 C785.162657,32.1845776 785.594575,30.86342 786.458423,29.7804878 C787.322272,28.6975556 788.488451,28.1560976 789.956994,28.1560976 L804.987888,28.1560976 Z M908.390073,28.1560976 C915.473634,28.1560976 921.542081,29.0440887 926.595596,30.8200976 C931.649112,32.5961064 935.773928,35.1734465 938.970168,38.5521951 C942.166409,41.9309437 944.520362,46.0676828 946.032097,50.9625366 C947.543833,55.8573903 948.299689,61.4235786 948.299689,67.6612683 L948.299689,79.6167805 C948.299689,85.8544702 947.543833,91.4206585 946.032097,96.3155122 C944.520362,101.210366 942.166409,105.347105 938.970168,108.725854 C935.773928,112.104602 931.649112,114.681942 926.595596,116.457951 C921.542081,118.23396 915.473634,119.121951 908.390073,119.121951 L882.863469,119.121951 C877.507606,119.121951 874.829715,116.43632 874.829715,111.064976 L874.829715,36.2130732 C874.829715,30.8417292 877.507606,28.1560976 882.863469,28.1560976 L908.390073,28.1560976 Z M899.319706,93.0017561 C899.319706,94.4745439 899.967583,95.2109268 901.263356,95.2109268 L908.001343,95.2109268 C913.616361,95.2109268 917.654793,93.9980609 920.116762,91.5722927 C922.578732,89.1465245 923.809698,84.7715438 923.809698,78.4472195 L923.809698,68.700878 C923.809698,62.3765537 922.578732,58.0015731 920.116762,55.5758049 C917.654793,53.1500367 913.616361,51.9371707 908.001343,51.9371707 L901.263356,51.9371707 C899.967583,51.9371707 899.319706,52.6735536 899.319706,54.1463415 L899.319706,93.0017561 Z M1022.54712,28.1560976 L1022.54712,51.9371707 L989.764225,51.9371707 C988.468451,51.9371707 987.820575,52.6735536 987.820575,54.1463415 L987.820575,93.0017561 C987.820575,94.4745439 988.468451,95.2109268 989.764225,95.2109268 L1022.54712,95.2109268 L1022.54712,119.121951 L971.364337,119.121951 C966.008474,119.121951 963.330583,116.393003 963.330583,110.935024 L963.330583,36.2130732 C963.330583,30.8417292 966.008474,28.1560976 971.364337,28.1560976 L1022.54712,28.1560976 Z M1022.28797,62.3332683 L1022.28797,83.9051707 L991.837451,83.9051707 L991.837451,62.3332683 L1022.28797,62.3332683 Z M1083.83689,28.1560976 C1100.16363,28.1560976 1108.32688,36.2129926 1108.32688,52.3270244 L1108.32688,57.6550244 C1108.32688,61.9867534 1107.78698,65.1705264 1106.70717,67.206439 C1105.62736,69.2423516 1103.96448,70.9100423 1101.71847,72.209561 C1104.22363,73.1625414 1106.31843,74.9168653 1108.00294,77.4725854 C1109.68744,80.0283055 1110.52968,83.3853451 1110.52968,87.5438049 L1110.52968,119.121951 L1086.16927,119.121951 L1086.16927,88.5834146 C1086.16927,87.2838959 1085.88852,86.1793216 1085.32702,85.2696585 C1084.76552,84.3599955 1083.66413,83.9051707 1082.02282,83.9051707 L1067.25108,83.9051707 L1067.25108,63.372878 L1080.9862,63.372878 C1082.7139,63.372878 1083.85848,62.9180533 1084.41998,62.0083902 C1084.98149,61.0987272 1085.26223,59.9941528 1085.26223,58.6946341 L1085.26223,55.9656585 C1085.26223,52.6735445 1083.70733,51.0275122 1080.59747,51.0275122 L1065.17785,51.0275122 C1063.88208,51.0275122 1063.2342,51.7638951 1063.2342,53.2366829 L1063.2342,119.121951 L1038.74421,119.121951 L1038.74421,36.2130732 C1038.74421,30.8417292 1041.4221,28.1560976 1046.77796,28.1560976 L1083.83689,28.1560976 Z" id="Combined-Shape"></path>
                <g id="womb" transform="translate(89.983801, 0.000000)">
                    <ellipse cx="73.7867171" cy="74" rx="39.0635561" ry="39.1764706"></ellipse>
                    <ellipse id="inner-shield" opacity="0.2" cx="73.7867171" cy="74" rx="47.7443463" ry="47.8823529"></ellipse>
                    <ellipse id="middle-shield" opacity="0.2" cx="73.7867171" cy="74" rx="56.4251366" ry="56.5882353"></ellipse>
                </g>
            </g>
        </g>
    </g>
</svg>