<?xml version="1.0" encoding="UTF-8"?>
<svg width="638px" height="219px" viewBox="0 0 638 219" version="1.1" xmlns="http://www.w3.org/2000/svg" xmlns:xlink="http://www.w3.org/1999/xlink">
    <!-- Generator: Sketch 47.1 (45422) - http://www.bohemiancoding.com/sketch -->
    <title>title_small</title>
    <desc>Created with Sketch.</desc>
    <defs></defs>
    <g id="WombDefender" stroke="none" stroke-width="1" fill="none" fill-rule="evenodd">
        <g id="Artboard" transform="translate(-101.000000, -170.000000)" fill="#D93F3F">
            <g id="title_small" transform="translate(101.000000, 153.000000)">
                <path d="M25.1954644,28.1560976 L25.1954644,90.4027317 C25.1954644,93.6082111 26.7071771,95.2109268 29.7306479,95.2109268 L38.6714384,95.2109268 C41.6949093,95.2109268 43.206622,93.6082111 43.206622,90.4027317 L43.206622,28.1560976 L54.9980994,28.1560976 L66.7895767,28.1560976 L66.7895767,90.4027317 C66.7895767,93.6082111 68.3012894,95.2109268 71.3247603,95.2109268 L80.2655508,95.2109268 C83.2890216,95.2109268 84.8007343,93.6082111 84.8007343,90.4027317 L84.8007343,28.1560976 L109.290726,28.1560976 L109.290726,101.838439 C109.290726,113.360838 103.589409,119.121951 92.1866048,119.121951 L66.4008467,119.121951 C63.204606,119.121951 60.6778862,118.407227 58.8206112,116.977756 C56.9633363,115.548286 55.6891784,113.967228 54.9980994,112.234537 C54.3070203,113.967228 53.0328624,115.548286 51.1755875,116.977756 C49.3183125,118.407227 46.7915927,119.121951 43.5953521,119.121951 L17.809594,119.121951 C6.40678964,119.121951 0.705473002,113.360838 0.705473002,101.838439 L0.705473002,28.1560976 L25.1954644,28.1560976 Z M259.470091,28.1560976 C262.666331,28.1560976 265.193051,28.8708221 267.050326,30.3002927 C268.907601,31.7297632 270.181759,33.3108206 270.872838,35.0435122 C271.563917,33.3108206 272.838075,31.7297632 274.69535,30.3002927 C276.552625,28.8708221 279.079345,28.1560976 282.275585,28.1560976 L308.061343,28.1560976 C319.464148,28.1560976 325.165464,33.9172107 325.165464,45.4396098 L325.165464,119.121951 L300.675473,119.121951 L300.675473,56.8753171 C300.675473,53.6698376 299.16376,52.067122 296.140289,52.067122 L287.199499,52.067122 C284.176028,52.067122 282.664315,53.6698376 282.664315,56.8753171 L282.664315,119.121951 L270.872838,119.121951 L259.081361,119.121951 L259.081361,56.8753171 C259.081361,53.6698376 257.569648,52.067122 254.546177,52.067122 L245.605387,52.067122 C242.581916,52.067122 241.070203,53.6698376 241.070203,56.8753171 L241.070203,119.121951 L216.580212,119.121951 L216.580212,45.4396098 C216.580212,33.9172107 222.281528,28.1560976 233.684333,28.1560976 L259.470091,28.1560976 Z M386.455231,28.1560976 C402.781974,28.1560976 410.945222,36.2129926 410.945222,52.3270244 L410.945222,57.6550244 C410.945222,61.9867534 410.405325,65.1705264 409.325514,67.206439 C408.245703,69.2423516 406.582819,70.9100423 404.336812,72.209561 C406.841974,73.1625414 408.828796,74.9168653 410.297339,77.4725854 C411.765882,80.0283055 412.500143,83.3853451 412.500143,87.5438049 L412.500143,94.9510244 C412.500143,111.065056 404.336894,119.121951 388.010151,119.121951 L349.396302,119.121951 C344.04044,119.121951 341.362549,116.393003 341.362549,110.935024 L341.362549,36.2130732 C341.362549,30.8417292 344.04044,28.1560976 349.396302,28.1560976 L386.455231,28.1560976 Z M365.85254,94.0413659 C365.85254,95.5141537 366.500417,96.2505366 367.79619,96.2505366 L384.770734,96.2505366 C387.88059,96.2505366 389.435495,94.6045043 389.435495,91.3123902 L389.435495,88.5834146 C389.435495,87.2838959 389.154748,86.1793216 388.593246,85.2696585 C388.031744,84.3599955 386.930354,83.9051707 385.289041,83.9051707 L369.869417,83.9051707 L369.869417,63.372878 L383.604544,63.372878 C385.332242,63.372878 386.476824,62.9180533 387.038326,62.0083902 C387.599828,61.0987272 387.880575,59.9941528 387.880575,58.6946341 L387.880575,55.9656585 C387.880575,52.6735445 386.32567,51.0275122 383.215814,51.0275122 L367.79619,51.0275122 C366.500417,51.0275122 365.85254,51.7638951 365.85254,53.2366829 L365.85254,94.0413659 Z M34.2658315,144.156098 C41.3493918,144.156098 47.4178387,145.044089 52.4713542,146.820098 C57.5248698,148.596106 61.649686,151.173447 64.8459266,154.552195 C68.0421672,157.930944 70.3961199,162.067683 71.9078553,166.962537 C73.4195907,171.85739 74.1754471,177.423579 74.1754471,183.661268 L74.1754471,195.61678 C74.1754471,201.85447 73.4195907,207.420658 71.9078553,212.315512 C70.3961199,217.210366 68.0421672,221.347105 64.8459266,224.725854 C61.649686,228.104602 57.5248698,230.681942 52.4713542,232.457951 C47.4178387,234.23396 41.3493918,235.121951 34.2658315,235.121951 L8.73922678,235.121951 C3.38336415,235.121951 0.705473002,232.43632 0.705473002,227.064976 L0.705473002,152.213073 C0.705473002,146.841729 3.38336415,144.156098 8.73922678,144.156098 L34.2658315,144.156098 Z M24.705473,209.220683 C24.705473,210.693471 25.3533499,211.429854 26.6491231,211.429854 L33.3871102,211.429854 C39.0021274,211.429854 43.04056,210.216988 45.5025292,207.79122 C47.9644983,205.365451 49.1954644,200.990471 49.1954644,194.666146 L49.1954644,184.919805 C49.1954644,178.595481 47.9644983,174.2205 45.5025292,171.794732 C43.04056,169.368963 39.0021274,168.156098 33.3871102,168.156098 L26.6491231,168.156098 C25.3533499,168.156098 24.705473,168.89248 24.705473,170.365268 L24.705473,209.220683 Z M147.922013,144.156098 L147.922013,167.937171 L115.139114,167.937171 C113.843341,167.937171 113.195464,168.673554 113.195464,170.146341 L113.195464,209.001756 C113.195464,210.474544 113.843341,211.210927 115.139114,211.210927 L147.922013,211.210927 L147.922013,235.121951 L96.7392268,235.121951 C91.3833641,235.121951 88.705473,232.393003 88.705473,226.935024 L88.705473,152.213073 C88.705473,146.841729 91.3833641,144.156098 96.7392268,144.156098 L147.922013,144.156098 Z M148.155991,178.156098 L148.155991,199.728 L117.705473,199.728 L117.705473,178.156098 L148.155991,178.156098 Z M223.922013,144.156098 L223.922013,167.937171 L191.139114,167.937171 C189.843341,167.937171 189.195464,168.673554 189.195464,170.146341 L189.195464,235.121951 L164.705473,235.121951 L164.705473,152.213073 C164.705473,146.841729 167.383364,144.156098 172.739227,144.156098 L223.922013,144.156098 Z M223.155991,178.156098 L223.155991,199.728 L192.705473,199.728 L192.705473,178.156098 L223.155991,178.156098 Z M296.922013,144.156098 L296.922013,167.937171 L264.139114,167.937171 C262.843341,167.937171 262.195464,168.673554 262.195464,170.146341 L262.195464,209.001756 C262.195464,210.474544 262.843341,211.210927 264.139114,211.210927 L296.922013,211.210927 L296.922013,235.121951 L245.739227,235.121951 C240.383364,235.121951 237.705473,232.393003 237.705473,226.935024 L237.705473,152.213073 C237.705473,146.841729 240.383364,144.156098 245.739227,144.156098 L296.922013,144.156098 Z M296.155991,178.156098 L296.155991,199.728 L265.705473,199.728 L265.705473,178.156098 L296.155991,178.156098 Z M332.530704,144.156098 C336.677178,144.156098 339.743796,146.06203 341.730648,149.873951 L361.167149,187.169951 L361.685456,187.169951 L361.685456,144.156098 L385.527564,144.156098 L385.527564,229.534049 C385.527564,231.093471 385.095646,232.414629 384.231797,233.497561 C383.367948,234.580493 382.20177,235.121951 380.733227,235.121951 L369.200903,235.121951 C365.227198,235.121951 362.160581,233.216019 360.000959,229.404098 L337.065888,189.898927 L336.547581,189.898927 L336.547581,235.121951 L312.705473,235.121951 L312.705473,149.744 C312.705473,148.184578 313.137391,146.86342 314.00124,145.780488 C314.865089,144.697556 316.031267,144.156098 317.49981,144.156098 L332.530704,144.156098 Z M436.265832,144.156098 C443.349392,144.156098 449.417839,145.044089 454.471354,146.820098 C459.52487,148.596106 463.649686,151.173447 466.845927,154.552195 C470.042167,157.930944 472.39612,162.067683 473.907855,166.962537 C475.419591,171.85739 476.175447,177.423579 476.175447,183.661268 L476.175447,195.61678 C476.175447,201.85447 475.419591,207.420658 473.907855,212.315512 C472.39612,217.210366 470.042167,221.347105 466.845927,224.725854 C463.649686,228.104602 459.52487,230.681942 454.471354,232.457951 C449.417839,234.23396 443.349392,235.121951 436.265832,235.121951 L410.739227,235.121951 C405.383364,235.121951 402.705473,232.43632 402.705473,227.064976 L402.705473,152.213073 C402.705473,146.841729 405.383364,144.156098 410.739227,144.156098 L436.265832,144.156098 Z M426.705473,209.220683 C426.705473,210.693471 427.35335,211.429854 428.649123,211.429854 L435.38711,211.429854 C441.002127,211.429854 445.04056,210.216988 447.502529,207.79122 C449.964498,205.365451 451.195464,200.990471 451.195464,194.666146 L451.195464,184.919805 C451.195464,178.595481 449.964498,174.2205 447.502529,171.794732 C445.04056,169.368963 441.002127,168.156098 435.38711,168.156098 L428.649123,168.156098 C427.35335,168.156098 426.705473,168.89248 426.705473,170.365268 L426.705473,209.220683 Z M549.922013,144.156098 L549.922013,167.937171 L517.139114,167.937171 C515.843341,167.937171 515.195464,168.673554 515.195464,170.146341 L515.195464,209.001756 C515.195464,210.474544 515.843341,211.210927 517.139114,211.210927 L549.922013,211.210927 L549.922013,235.121951 L498.739227,235.121951 C493.383364,235.121951 490.705473,232.393003 490.705473,226.935024 L490.705473,152.213073 C490.705473,146.841729 493.383364,144.156098 498.739227,144.156098 L549.922013,144.156098 Z M550.155991,178.156098 L550.155991,199.728 L519.705473,199.728 L519.705473,178.156098 L550.155991,178.156098 Z M610.798156,144.156098 C627.124898,144.156098 635.288147,152.212993 635.288147,168.327024 L635.288147,173.655024 C635.288147,177.986753 634.748249,181.170526 633.668438,183.206439 C632.588627,185.242352 630.925743,186.910042 628.679737,188.209561 C631.184898,189.162541 633.2797,190.916865 634.964205,193.472585 C636.64871,196.028305 637.49095,199.385345 637.49095,203.543805 L637.49095,235.121951 L613.130536,235.121951 L613.130536,204.583415 C613.130536,203.283896 612.849789,202.179322 612.288287,201.269659 C611.726786,200.359995 610.625395,199.905171 608.984082,199.905171 L594.212341,199.905171 L594.212341,179.372878 L607.947469,179.372878 C609.675166,179.372878 610.819749,178.918053 611.381251,178.00839 C611.942752,177.098727 612.223499,175.994153 612.223499,174.694634 L612.223499,171.965659 C612.223499,168.673545 610.668594,167.027512 607.558739,167.027512 L592.139114,167.027512 C590.843341,167.027512 590.195464,167.763895 590.195464,169.236683 L590.195464,235.121951 L565.705473,235.121951 L565.705473,152.213073 C565.705473,146.841729 568.383364,144.156098 573.739227,144.156098 L610.798156,144.156098 Z" id="Combined-Shape"></path>
                <g id="womb" transform="translate(89.983801, 0.000000)">
                    <ellipse cx="73.7867171" cy="74" rx="39.0635561" ry="39.1764706"></ellipse>
                    <ellipse id="inner-shield" opacity="0.2" cx="73.7867171" cy="74" rx="47.7443463" ry="47.8823529"></ellipse>
                    <ellipse id="middle-shield" opacity="0.2" cx="73.7867171" cy="74" rx="56.4251366" ry="56.5882353"></ellipse>
                </g>
            </g>
        </g>
    </g>
</svg>